<svg xmlns="http://www.w3.org/2000/svg" viewBox="0 0 640 600" width="640" height="600" role="img" aria-label="Production floor at Sri Venkatesh Machinery">
  <defs>
    <linearGradient id="sky-sri-venkatesh-machinery-floor" x1="0" y1="0" x2="0" y2="1">
      <stop offset="0%" stop-color="hsl(242 30% 26%)"/>
      <stop offset="100%" stop-color="hsl(242 26% 16%)"/>
    </linearGradient>
    <linearGradient id="vig-sri-venkatesh-machinery-floor" x1="0" y1="0" x2="0" y2="1">
      <stop offset="0%" stop-color="#000" stop-opacity="0"/>
      <stop offset="72%" stop-color="#000" stop-opacity="0"/>
      <stop offset="100%" stop-color="#000" stop-opacity="0.45"/>
    </linearGradient>
  </defs>

  <rect width="640" height="600" fill="url(#sky-sri-venkatesh-machinery-floor)"/>
  <circle cx="512" cy="86" r="46" fill="hsl(242 52% 70%)" opacity="0.16"/>

  <g opacity="0.34">
    <rect x="0" y="206" width="640" height="94" fill="none" stroke="hsl(242 34% 56%)" stroke-width="2"/>
    <rect x="30" y="216" width="34" height="30" fill="hsl(242 36% 58%)" opacity="0.18"/>
    <rect x="134" y="216" width="34" height="30" fill="hsl(242 36% 58%)" opacity="0.22"/>
    <rect x="238" y="216" width="34" height="30" fill="hsl(242 36% 58%)" opacity="0.26"/>
    <rect x="342" y="216" width="34" height="30" fill="hsl(242 36% 58%)" opacity="0.30"/>
    <rect x="446" y="216" width="34" height="30" fill="hsl(242 36% 58%)" opacity="0.34"/>
    <rect x="550" y="216" width="34" height="30" fill="hsl(242 36% 58%)" opacity="0.38"/>
  </g>

  <g>
    <rect x="0" y="300" width="640" height="300" fill="hsl(242 24% 22%)"/>
    <rect x="0" y="296" width="640" height="6" fill="hsl(242 30% 40%)" opacity="0.7"/>
    <rect x="65.2" y="174.6" width="72" height="125.4" fill="hsl(242 38% 32%)"/>
    <rect x="75.2" y="184.6" width="16" height="16" fill="hsl(242 40% 62%)" opacity="0.8"/>
    <rect x="101.2" y="194.6" width="16" height="16" fill="hsl(242 40% 62%)" opacity="0.55"/>
    <rect x="170.3" y="149.7" width="72" height="150.3" fill="hsl(242 42% 48%)"/>
    <rect x="180.3" y="159.7" width="16" height="16" fill="hsl(242 40% 62%)" opacity="0.8"/>
    <rect x="206.3" y="169.7" width="16" height="16" fill="hsl(242 40% 62%)" opacity="0.55"/>
    <rect x="281.8" y="152.2" width="72" height="147.8" fill="hsl(242 38% 32%)"/>
    <rect x="291.8" y="162.2" width="16" height="16" fill="hsl(242 40% 62%)" opacity="0.8"/>
    <rect x="317.8" y="172.2" width="16" height="16" fill="hsl(242 40% 62%)" opacity="0.55"/>
    <rect x="389.1" y="159.6" width="72" height="140.4" fill="hsl(242 42% 48%)"/>
    <rect x="399.1" y="169.6" width="16" height="16" fill="hsl(242 40% 62%)" opacity="0.8"/>
    <rect x="425.1" y="179.6" width="16" height="16" fill="hsl(242 40% 62%)" opacity="0.55"/>
    <rect x="497.2" y="189.5" width="72" height="110.5" fill="hsl(242 38% 32%)"/>
    <rect x="507.2" y="199.5" width="16" height="16" fill="hsl(242 40% 62%)" opacity="0.8"/>
    <rect x="533.2" y="209.5" width="16" height="16" fill="hsl(242 40% 62%)" opacity="0.55"/>
    <rect x="0" y="180" width="640" height="10" fill="hsl(242 30% 44%)" opacity="0.55"/>
  </g>

  <rect width="640" height="600" fill="url(#vig-sri-venkatesh-machinery-floor)"/>
  <rect x="0" y="524" width="640" height="76" fill="#0a0f1c" opacity="0.5"/>
  <text x="26" y="558" font-family="Segoe UI, system-ui, sans-serif" font-size="24" font-weight="700" fill="#ffffff">Production floor</text>
  <text x="26" y="582" font-family="Segoe UI, system-ui, sans-serif" font-size="17" font-weight="500" fill="#ffffff" opacity="0.72">Sri Venkatesh Machinery</text>
</svg>
