<svg xmlns="http://www.w3.org/2000/svg" viewBox="0 0 640 600" width="640" height="600" role="img" aria-label="Production floor at Shrishti Alloys">
  <defs>
    <linearGradient id="sky-srishti-alloys-floor" x1="0" y1="0" x2="0" y2="1">
      <stop offset="0%" stop-color="hsl(200 30% 26%)"/>
      <stop offset="100%" stop-color="hsl(200 26% 16%)"/>
    </linearGradient>
    <linearGradient id="vig-srishti-alloys-floor" x1="0" y1="0" x2="0" y2="1">
      <stop offset="0%" stop-color="#000" stop-opacity="0"/>
      <stop offset="72%" stop-color="#000" stop-opacity="0"/>
      <stop offset="100%" stop-color="#000" stop-opacity="0.45"/>
    </linearGradient>
  </defs>

  <rect width="640" height="600" fill="url(#sky-srishti-alloys-floor)"/>
  <circle cx="512" cy="86" r="46" fill="hsl(200 52% 70%)" opacity="0.16"/>

  <g opacity="0.34">
    <rect x="0" y="206" width="640" height="94" fill="none" stroke="hsl(200 34% 56%)" stroke-width="2"/>
    <rect x="30" y="216" width="34" height="30" fill="hsl(200 36% 58%)" opacity="0.18"/>
    <rect x="134" y="216" width="34" height="30" fill="hsl(200 36% 58%)" opacity="0.22"/>
    <rect x="238" y="216" width="34" height="30" fill="hsl(200 36% 58%)" opacity="0.26"/>
    <rect x="342" y="216" width="34" height="30" fill="hsl(200 36% 58%)" opacity="0.30"/>
    <rect x="446" y="216" width="34" height="30" fill="hsl(200 36% 58%)" opacity="0.34"/>
    <rect x="550" y="216" width="34" height="30" fill="hsl(200 36% 58%)" opacity="0.38"/>
  </g>

  <g>
    <rect x="0" y="300" width="640" height="300" fill="hsl(200 24% 22%)"/>
    <rect x="0" y="296" width="640" height="6" fill="hsl(200 30% 40%)" opacity="0.7"/>
    <rect x="69.6" y="199.4" width="72" height="100.6" fill="hsl(200 38% 32%)"/>
    <rect x="79.6" y="209.4" width="16" height="16" fill="hsl(200 40% 62%)" opacity="0.8"/>
    <rect x="105.6" y="219.4" width="16" height="16" fill="hsl(200 40% 62%)" opacity="0.55"/>
    <rect x="175.4" y="141.1" width="72" height="158.9" fill="hsl(200 42% 48%)"/>
    <rect x="185.4" y="151.1" width="16" height="16" fill="hsl(200 40% 62%)" opacity="0.8"/>
    <rect x="211.4" y="161.1" width="16" height="16" fill="hsl(200 40% 62%)" opacity="0.55"/>
    <rect x="278.4" y="163.3" width="72" height="136.7" fill="hsl(200 38% 32%)"/>
    <rect x="288.4" y="173.3" width="16" height="16" fill="hsl(200 40% 62%)" opacity="0.8"/>
    <rect x="314.4" y="183.3" width="16" height="16" fill="hsl(200 40% 62%)" opacity="0.55"/>
    <rect x="384.1" y="198.0" width="72" height="102.0" fill="hsl(200 42% 48%)"/>
    <rect x="394.1" y="208.0" width="16" height="16" fill="hsl(200 40% 62%)" opacity="0.8"/>
    <rect x="420.1" y="218.0" width="16" height="16" fill="hsl(200 40% 62%)" opacity="0.55"/>
    <rect x="496.3" y="185.3" width="72" height="114.7" fill="hsl(200 38% 32%)"/>
    <rect x="506.3" y="195.3" width="16" height="16" fill="hsl(200 40% 62%)" opacity="0.8"/>
    <rect x="532.3" y="205.3" width="16" height="16" fill="hsl(200 40% 62%)" opacity="0.55"/>
    <rect x="0" y="180" width="640" height="10" fill="hsl(200 30% 44%)" opacity="0.55"/>
  </g>

  <rect width="640" height="600" fill="url(#vig-srishti-alloys-floor)"/>
  <rect x="0" y="524" width="640" height="76" fill="#0a0f1c" opacity="0.5"/>
  <text x="26" y="558" font-family="Segoe UI, system-ui, sans-serif" font-size="24" font-weight="700" fill="#ffffff">Production floor</text>
  <text x="26" y="582" font-family="Segoe UI, system-ui, sans-serif" font-size="17" font-weight="500" fill="#ffffff" opacity="0.72">Shrishti Alloys</text>
</svg>
