<svg xmlns="http://www.w3.org/2000/svg" viewBox="0 0 640 600" width="640" height="600" role="img" aria-label="Quality inspection at Looms of Gujarat">
  <defs>
    <linearGradient id="sky-looms-of-gujarat-quality" x1="0" y1="0" x2="0" y2="1">
      <stop offset="0%" stop-color="hsl(327 30% 26%)"/>
      <stop offset="100%" stop-color="hsl(327 26% 16%)"/>
    </linearGradient>
    <linearGradient id="vig-looms-of-gujarat-quality" x1="0" y1="0" x2="0" y2="1">
      <stop offset="0%" stop-color="#000" stop-opacity="0"/>
      <stop offset="72%" stop-color="#000" stop-opacity="0"/>
      <stop offset="100%" stop-color="#000" stop-opacity="0.45"/>
    </linearGradient>
  </defs>

  <rect width="640" height="600" fill="url(#sky-looms-of-gujarat-quality)"/>
  <circle cx="512" cy="86" r="46" fill="hsl(327 52% 70%)" opacity="0.16"/>

  <g opacity="0.34">
    <rect x="0" y="206" width="640" height="94" fill="none" stroke="hsl(327 34% 56%)" stroke-width="2"/>
    <rect x="30" y="216" width="34" height="30" fill="hsl(327 36% 58%)" opacity="0.18"/>
    <rect x="134" y="216" width="34" height="30" fill="hsl(327 36% 58%)" opacity="0.22"/>
    <rect x="238" y="216" width="34" height="30" fill="hsl(327 36% 58%)" opacity="0.26"/>
    <rect x="342" y="216" width="34" height="30" fill="hsl(327 36% 58%)" opacity="0.30"/>
    <rect x="446" y="216" width="34" height="30" fill="hsl(327 36% 58%)" opacity="0.34"/>
    <rect x="550" y="216" width="34" height="30" fill="hsl(327 36% 58%)" opacity="0.38"/>
  </g>

  <g>
    <rect x="0" y="300" width="640" height="300" fill="hsl(327 24% 22%)"/>
    <rect x="0" y="296" width="640" height="6" fill="hsl(327 30% 40%)" opacity="0.7"/>
    <rect x="120" y="170" width="240" height="130" rx="8" fill="hsl(327 30% 38%)"/>
    <rect x="140" y="188" width="200" height="94" rx="4" fill="hsl(327 26% 24%)"/>
    <polyline points="152,268 200,232 240,254 288,206 328,224" fill="none" stroke="hsl(327 58% 70%)" stroke-width="5" stroke-linecap="round" stroke-linejoin="round"/>
    <circle cx="288" cy="206" r="7" fill="hsl(327 60% 74%)"/>
    <rect x="400" y="196" width="150" height="104" fill="hsl(327 38% 32%)"/>
    <rect x="418" y="216" width="114" height="10" fill="hsl(327 40% 62%)" opacity="0.75"/>
    <rect x="418" y="238" width="84" height="10" fill="hsl(327 40% 62%)" opacity="0.55"/>
    <circle cx="196" cy="120" r="26" fill="hsl(327 42% 48%)"/>
    <rect x="188" y="128" width="16" height="34" fill="hsl(327 44% 66%)" rx="8"/>
  </g>

  <rect width="640" height="600" fill="url(#vig-looms-of-gujarat-quality)"/>
  <rect x="0" y="524" width="640" height="76" fill="#0a0f1c" opacity="0.5"/>
  <text x="26" y="558" font-family="Segoe UI, system-ui, sans-serif" font-size="24" font-weight="700" fill="#ffffff">Quality inspection</text>
  <text x="26" y="582" font-family="Segoe UI, system-ui, sans-serif" font-size="17" font-weight="500" fill="#ffffff" opacity="0.72">Looms of Gujarat</text>
</svg>
