<svg xmlns="http://www.w3.org/2000/svg" viewBox="0 0 640 600" width="640" height="600" role="img" aria-label="Production floor at Medical Care Pharma">
  <defs>
    <linearGradient id="sky-medical-care-pharma-floor" x1="0" y1="0" x2="0" y2="1">
      <stop offset="0%" stop-color="hsl(219 30% 26%)"/>
      <stop offset="100%" stop-color="hsl(219 26% 16%)"/>
    </linearGradient>
    <linearGradient id="vig-medical-care-pharma-floor" x1="0" y1="0" x2="0" y2="1">
      <stop offset="0%" stop-color="#000" stop-opacity="0"/>
      <stop offset="72%" stop-color="#000" stop-opacity="0"/>
      <stop offset="100%" stop-color="#000" stop-opacity="0.45"/>
    </linearGradient>
  </defs>

  <rect width="640" height="600" fill="url(#sky-medical-care-pharma-floor)"/>
  <circle cx="512" cy="86" r="46" fill="hsl(219 52% 70%)" opacity="0.16"/>

  <g opacity="0.34">
    <rect x="0" y="206" width="640" height="94" fill="none" stroke="hsl(219 34% 56%)" stroke-width="2"/>
    <rect x="30" y="216" width="34" height="30" fill="hsl(219 36% 58%)" opacity="0.18"/>
    <rect x="134" y="216" width="34" height="30" fill="hsl(219 36% 58%)" opacity="0.22"/>
    <rect x="238" y="216" width="34" height="30" fill="hsl(219 36% 58%)" opacity="0.26"/>
    <rect x="342" y="216" width="34" height="30" fill="hsl(219 36% 58%)" opacity="0.30"/>
    <rect x="446" y="216" width="34" height="30" fill="hsl(219 36% 58%)" opacity="0.34"/>
    <rect x="550" y="216" width="34" height="30" fill="hsl(219 36% 58%)" opacity="0.38"/>
  </g>

  <g>
    <rect x="0" y="300" width="640" height="300" fill="hsl(219 24% 22%)"/>
    <rect x="0" y="296" width="640" height="6" fill="hsl(219 30% 40%)" opacity="0.7"/>
    <rect x="68.4" y="200.6" width="72" height="99.4" fill="hsl(219 38% 32%)"/>
    <rect x="78.4" y="210.6" width="16" height="16" fill="hsl(219 40% 62%)" opacity="0.8"/>
    <rect x="104.4" y="220.6" width="16" height="16" fill="hsl(219 40% 62%)" opacity="0.55"/>
    <rect x="172.7" y="206.9" width="72" height="93.1" fill="hsl(219 42% 48%)"/>
    <rect x="182.7" y="216.9" width="16" height="16" fill="hsl(219 40% 62%)" opacity="0.8"/>
    <rect x="208.7" y="226.9" width="16" height="16" fill="hsl(219 40% 62%)" opacity="0.55"/>
    <rect x="276.6" y="144.7" width="72" height="155.3" fill="hsl(219 38% 32%)"/>
    <rect x="286.6" y="154.7" width="16" height="16" fill="hsl(219 40% 62%)" opacity="0.8"/>
    <rect x="312.6" y="164.7" width="16" height="16" fill="hsl(219 40% 62%)" opacity="0.55"/>
    <rect x="390.7" y="165.0" width="72" height="135.0" fill="hsl(219 42% 48%)"/>
    <rect x="400.7" y="175.0" width="16" height="16" fill="hsl(219 40% 62%)" opacity="0.8"/>
    <rect x="426.7" y="185.0" width="16" height="16" fill="hsl(219 40% 62%)" opacity="0.55"/>
    <rect x="501.0" y="171.1" width="72" height="128.9" fill="hsl(219 38% 32%)"/>
    <rect x="511.0" y="181.1" width="16" height="16" fill="hsl(219 40% 62%)" opacity="0.8"/>
    <rect x="537.0" y="191.1" width="16" height="16" fill="hsl(219 40% 62%)" opacity="0.55"/>
    <rect x="0" y="180" width="640" height="10" fill="hsl(219 30% 44%)" opacity="0.55"/>
  </g>

  <rect width="640" height="600" fill="url(#vig-medical-care-pharma-floor)"/>
  <rect x="0" y="524" width="640" height="76" fill="#0a0f1c" opacity="0.5"/>
  <text x="26" y="558" font-family="Segoe UI, system-ui, sans-serif" font-size="24" font-weight="700" fill="#ffffff">Production floor</text>
  <text x="26" y="582" font-family="Segoe UI, system-ui, sans-serif" font-size="17" font-weight="500" fill="#ffffff" opacity="0.72">Medical Care Pharma</text>
</svg>
